# xmcd
#
# Track frame offsets:
#	150
#	24635
#	57165
#	65812
#	94482
#	109440
#	127465
#	152357
#	168395
#	174380
#
# Disc length: 2740 seconds
#
# Revision: 1
# Processed by: cddbd v1.5.1PL0 Copyright (c) Steve Scherf et al.
# Submitted via: CDex 1.50Beta5
#
DISCID=900ab20a
DTITLE=加川良 - 親愛なるQに捧ぐ
DYEAR=1989
DGENRE=Pop
TTITLE0=偶成
TTITLE1=こがらし・えれじい
TTITLE2=夕焼けトンボ
TTITLE3=靴ひもむすんで
TTITLE4=鎮静剤
TTITLE5=こもりうた
TTITLE6=下宿屋
TTITLE7=白い家
TTITLE8=コオロギ
TTITLE9=親愛なるQに捧ぐ
EXTD=
EXTT0=
EXTT1=
EXTT2=
EXTT3=
EXTT4=
EXTT5=
EXTT6=
EXTT7=
EXTT8=
EXTT9=
PLAYORDER=
